<svg width="80" height="80" viewBox="0 0 80 75" fill="none" xmlns="http://www.w3.org/2000/svg">
<path fill-rule="evenodd" clip-rule="evenodd" d="M7.4444 71.802C5.81475 71.802 4.28287 71.4109 2.84878 70.6287C1.47987 69.8464 0.79541 68.6731 0.79541 67.1086V4.92095C0.79541 3.29129 1.57764 2.11793 3.14211 1.40089C4.77177 0.683841 6.5318 0.325317 8.4222 0.325317C10.3126 0.325317 12.04 0.683841 13.6045 1.40089C15.2342 2.11793 16.049 3.29129 16.049 4.92095V58.504H38.3427C39.842 58.504 40.9501 59.1885 41.6672 60.5574C42.3842 61.9263 42.7427 63.4582 42.7427 65.153C42.7427 66.7827 42.3842 68.3145 41.6672 69.7486C40.9501 71.1176 39.842 71.802 38.3427 71.802H7.4444ZM72.1988 1.52324C73.8284 1.52324 75.3603 1.91436 76.7944 2.69659C78.1633 3.47883 78.8477 4.65218 78.8477 6.21665L78.8477 68.4043C78.8477 70.034 78.0655 71.2073 76.501 71.9244C74.8714 72.6414 73.1114 72.9999 71.221 72.9999C69.3306 72.9999 67.6031 72.6414 66.0387 71.9244C64.409 71.2073 63.5942 70.034 63.5942 68.4043L63.5942 14.8212L41.3005 14.8212C39.8012 14.8212 38.693 14.1368 37.976 12.7679C37.2589 11.399 36.9004 9.86708 36.9004 8.17224C36.9004 6.54258 37.2589 5.01071 37.976 3.57661C38.693 2.2077 39.8012 1.52324 41.3005 1.52324L72.1988 1.52324ZM39.8213 47.3573C45.7278 47.3573 50.5159 42.5691 50.5159 36.6627C50.5159 30.7562 45.7278 25.9681 39.8213 25.9681C33.9149 25.9681 29.1267 30.7562 29.1267 36.6627C29.1267 42.5691 33.9149 47.3573 39.8213 47.3573Z" fill="#ff6771"/>
</svg>
